<svg xmlns="http://www.w3.org/2000/svg" viewBox="0 0 60 60">
	<path fill="#ffffff" d="M30,0C13.5,0,0,13.5,0,30c0,16.5,13.5,30,30,30c16.5,0,30-13.5,30-30C60,13.5,46.5,0,30,0z M30,58.2 C14.4,58.2,1.8,45.6,1.8,30S14.4,1.8,30,1.8S58.2,14.4,58.2,30C58.2,45.6,45.6,58.2,30,58.2z M37.6,30c0-4.2-3.4-7.6-7.6-7.6 c-4.2,0-7.6,3.4-7.6,7.6c0,4.2,3.4,7.6,7.6,7.6C34.2,37.6,37.6,34.2,37.6,30z M30,35.8c-3.2,0-5.8-2.6-5.8-5.8 c0-3.2,2.6-5.8,5.8-5.8s5.8,2.6,5.8,5.8C35.8,33.2,33.2,35.8,30,35.8z M53.6,35.5C53.6,35.5,53.6,35.5,53.6,35.5 c-6-1.6-12.4,0.1-16.7,4.5c-3.8,3.8-5.6,8.9-5,14.2c0,0,0,0,0,0v0c0.1,0.5,0.4,0.8,0.9,0.8c0,0,0.1,0,0.1,0c5-0.6,9.7-2.6,13.5-6 c3.8-3.3,6.5-7.6,7.8-12.4C54.3,36.1,54.1,35.6,53.6,35.5z M45.3,47.6c-3.3,2.9-7.4,4.8-11.7,5.4c-0.2-4.4,1.4-8.7,4.5-11.9 c3.7-3.7,9-5.3,14.1-4.2C51,41.1,48.6,44.8,45.3,47.6z M6.4,35.5C6.4,35.5,6.4,35.5,6.4,35.5C6.4,35.5,6.4,35.5,6.4,35.5 c-0.5,0.1-0.8,0.6-0.6,1.1c1.3,4.8,4,9.1,7.8,12.4c3.8,3.3,8.5,5.4,13.5,6c0,0,0.1,0,0.1,0c0.4,0,0.8-0.3,0.9-0.8v0c0,0,0,0,0,0 c0.6-5.3-1.2-10.5-5-14.2C18.8,35.6,12.4,33.9,6.4,35.5z M26.4,53c-4.3-0.7-8.4-2.5-11.7-5.4c-3.3-2.9-5.7-6.5-7-10.7 c5.1-1,10.4,0.5,14.1,4.2C25,44.3,26.7,48.6,26.4,53z M47.6,12.1c-4.7-4.7-11-7.2-17.6-7.2c-6.6,0-12.9,2.6-17.6,7.2 C7.7,16.8,5,23,4.9,29.6c0,0.4,0.2,0.7,0.6,0.8c0.1,0,0.2,0.1,0.3,0.1c0.3,0,0.5-0.1,0.7-0.3C11.7,23.8,20.5,20,30,20 c9.5,0,18.3,3.8,23.5,10.2c0.2,0.3,0.6,0.4,1,0.3c0.4-0.1,0.6-0.5,0.6-0.8C55,23,52.3,16.8,47.6,12.1z M30,18.3 c-9,0-17.5,3.3-23.1,8.9c0.6-5.2,3-10,6.8-13.8C18,9.1,23.8,6.7,30,6.7c6.2,0,12,2.4,16.4,6.7c3.8,3.7,6.2,8.6,6.8,13.8 C47.5,21.6,39,18.3,30,18.3z" />
</svg>
