<svg xmlns="http://www.w3.org/2000/svg" viewBox="0 0 140 140">
	<path fill="#405959" d="M76.5,139.7c0.4,0,0.7-0.1,1.1-0.1c0.8-0.1,1.7-0.2,2.5-0.3c0.2,0,0.5-0.1,0.7-0.1c1-0.2,2-0.3,3-0.5
		c0.4-0.1,0.9-0.2,1.3-0.3c0.6-0.1,1.1-0.3,1.7-0.4c0.5-0.1,1-0.3,1.5-0.4c0.5-0.1,0.9-0.3,1.3-0.4c2.3-0.7,4.5-1.4,6.7-2.3
		c0,0,0.1,0,0.1,0c0.8-0.3,1.6-0.7,2.4-1c0,0,0,0,0,0c24.3-11,41.2-35.4,41.2-63.8c0-38.6-31.4-70-70-70C31.4,0,0,31.4,0,70
		c0,28.3,16.9,52.8,41.2,63.8c0,0,0,0,0,0c0.8,0.4,1.6,0.7,2.4,1c0,0,0.1,0,0.1,0c2.2,0.9,4.4,1.7,6.7,2.3c0.4,0.1,0.9,0.3,1.3,0.4
		c0.5,0.1,1,0.3,1.5,0.4c0.6,0.1,1.1,0.3,1.7,0.4c0.4,0.1,0.9,0.2,1.3,0.3c1,0.2,2,0.4,3,0.5c0.2,0,0.5,0.1,0.7,0.1
		c0.8,0.1,1.7,0.2,2.5,0.3c0.4,0,0.7,0.1,1.1,0.1c0.8,0.1,1.5,0.1,2.3,0.2c0.3,0,0.7,0,1,0.1c1.1,0,2.2,0.1,3.2,0.1s2.2,0,3.2-0.1
		c0.3,0,0.7,0,1-0.1C75,139.8,75.8,139.8,76.5,139.7z M4.2,70C4.2,33.7,33.7,4.2,70,4.2c36.3,0,65.8,29.5,65.8,65.8
		c0,21.7-10.5,40.9-26.8,52.9c-16.7-6.3-19.4-11.6-19.4-21.5c0-2.7,0.6-3.6,1.7-5.2c1.4-2.1,3.4-5,4.8-12.5
		c0.2-1.1,0.4-1.2,1.3-1.6c2.6-1.2,4.9-3,5.6-11.3c0-3.9-1.4-6-2.5-7.1c0.8-5.1,3-23.9-4.1-32.1c-4.6-5.3-11.2-6-13.8-6.1
		c-3.6-3.8-15.1-7-29.6-1.2c-16.6,6.7-16.5,21.1-14.6,32.9c0.4,2.6,0.8,5,1,6.4C38.4,64.9,37,67,37,71c0.6,8.1,3,9.9,5.6,11.1
		c1,0.5,1.1,0.6,1.3,1.6c1.4,7.5,3.4,10.4,4.8,12.5c1.1,1.6,1.7,2.5,1.7,5.2c0,9.9-2.7,15.2-19.4,21.5C14.8,110.9,4.2,91.7,4.2,70z
		 M94.3,131.1c-1.1,0.4-2.2,0.9-3.4,1.2c-0.3,0.1-0.5,0.2-0.8,0.3c-0.5,0.2-1,0.3-1.5,0.4c-0.5,0.1-0.9,0.3-1.4,0.4
		c-0.4,0.1-0.8,0.2-1.3,0.3c-0.8,0.2-1.7,0.4-2.5,0.6c-0.3,0.1-0.6,0.1-0.9,0.2c-0.7,0.1-1.3,0.3-2,0.4c-0.3,0.1-0.6,0.1-0.9,0.1
		c-0.9,0.1-1.9,0.3-2.8,0.4c-0.1,0-0.3,0-0.4,0c-0.8,0.1-1.7,0.1-2.6,0.2c-0.3,0-0.5,0-0.8,0c-1,0-2,0.1-3,0.1s-2,0-3-0.1
		c-0.3,0-0.5,0-0.8,0c-0.9,0-1.7-0.1-2.6-0.2c-0.1,0-0.3,0-0.4,0c-0.9-0.1-1.9-0.2-2.8-0.4c-0.3,0-0.6-0.1-0.9-0.1
		c-0.7-0.1-1.3-0.2-2-0.4c-0.3-0.1-0.6-0.1-0.9-0.2c-0.8-0.2-1.7-0.4-2.5-0.6c-0.4-0.1-0.8-0.2-1.3-0.3c-0.5-0.1-0.9-0.3-1.4-0.4
		c-0.5-0.1-1-0.3-1.5-0.4c-0.3-0.1-0.6-0.2-0.8-0.3c-1.1-0.4-2.2-0.8-3.3-1.2c-0.1,0-0.2-0.1-0.3-0.1c-3.5-1.4-6.9-3.1-10.1-5.2
		c14.7-6,19.4-12.1,19.4-24.4c0-4-1.2-5.7-2.4-7.5c-1.3-1.9-2.9-4.2-4.1-10.8c-0.6-3.2-2.4-4.1-3.7-4.7c-1.3-0.6-2.7-1.3-3.2-7.5
		c0-3.4,1.5-4.3,1.4-4.3c0.9-0.4,1.4-1.4,1.2-2.3c0,0-0.6-3.5-1.2-7.6c-1.8-10.9-1.7-22.8,12-28.3c13.9-5.6,23.9-1.6,25.1,0.3
		c0.3,0.5,1.2,1,1.8,1.1c0.2,0,0.4,0.1,0.6,0.1c1.2,0,7.3,0.1,11.1,4.6c5.7,6.6,3.9,24.2,2.9,29.8c-0.2,0.9,0.3,1.8,1.1,2.3
		c0.1,0,1.5,0.9,1.5,4.2c-0.5,6.4-1.8,7-3.2,7.6c-1.2,0.6-3.1,1.5-3.7,4.7c-1.2,6.6-2.8,9-4.1,10.8c-1.3,1.8-2.4,3.6-2.4,7.5
		c0,12.3,4.6,18.4,19.4,24.4c-3.2,2-6.6,3.8-10.1,5.2C94.5,131,94.4,131,94.3,131.1z" />
</svg>
